<?xml version="1.0" encoding="utf-8"?>
<!-- Generator: Adobe Illustrator 16.0.4, SVG Export Plug-In . SVG Version: 6.00 Build 0)  -->
<!DOCTYPE svg PUBLIC "-//W3C//DTD SVG 1.1//EN" "http://www.w3.org/Graphics/SVG/1.1/DTD/svg11.dtd">
<svg version="1.1" id="Layer_1" xmlns="http://www.w3.org/2000/svg" xmlns:xlink="http://www.w3.org/1999/xlink" x="0px" y="0px"
	 width="96px" height="96px" viewBox="0 0 96 96" enable-background="new 0 0 96 96" xml:space="preserve">
<path d="M72.851,11.068l-5.534-0.11l0.047-2.416l5.535,0.11L72.851,11.068z M84.126,6.508l-1.244-2.072l-4.449,2.671l1.244,2.072
	L84.126,6.508z M75.988,5.018l-1.756-4.526l-2.254,0.874l1.756,4.526L75.988,5.018z M84.238,59.27
	c0,20.014-16.225,36.239-36.239,36.239c-20.014,0-36.239-16.225-36.239-36.239c0-16.053,10.439-29.658,24.895-34.419v-7.02h10.811
	c1.599-6.102,5.828-11.123,13.366-7.989c3.316,1.378,6.389,3.317,9.747,4.599c1.257,0.478,3.344,1.495,4.728,1.055
	c1.961-0.629-0.115-5.228-0.539-6.384c-0.64-1.747,2.144-2.494,2.777-0.765c0.971,2.646,2.623,6.962-0.033,9.213
	c-2.062,1.751-5.546,0.537-7.697-0.344c-3.315-1.356-6.397-3.361-9.748-4.598c-5.668-2.097-8.52,0.989-9.729,5.213h9.009v7.02
	C73.8,29.611,84.238,43.217,84.238,59.27z M44.335,34.763c-0.394-2.174-2.47-3.619-4.649-3.223
	c-18.603,3.369-21.044,24.004-21.139,24.881c-0.236,2.19,1.345,4.154,3.535,4.397c0.15,0.017,0.299,0.024,0.446,0.024
	c2.007,0,3.738-1.511,3.972-3.551c0.073-0.635,1.931-15.585,14.613-17.882C43.287,39.017,44.729,36.937,44.335,34.763z"/>
</svg>
